<?xml version="1.0" standalone="no"?>
<!DOCTYPE svg PUBLIC "-//W3C//DTD SVG 20010904//EN"
 "http://www.w3.org/TR/2001/REC-SVG-20010904/DTD/svg10.dtd">
<svg version="1.0" xmlns="http://www.w3.org/2000/svg"
 width="1280.000000pt" height="1280.000000pt" viewBox="0 0 1280.000000 1280.000000"
 preserveAspectRatio="xMidYMid meet">
<metadata>
Created by potrace 1.15, written by Peter Selinger 2001-2017
</metadata>
<g transform="translate(0.000000,1280.000000) scale(0.100000,-0.100000)"
fill="#000000" stroke="none">
<path d="M2507 10995 c-301 -41 -609 -166 -868 -351 -105 -75 -313 -275 -394
-379 -400 -514 -548 -1149 -419 -1795 79 -397 269 -756 560 -1059 l111 -116
-29 -110 c-60 -231 -108 -501 -139 -780 -17 -161 -23 -672 -10 -857 80 -1092
481 -2085 1181 -2928 220 -264 562 -590 844 -801 1039 -782 2339 -1134 3626
-984 1300 152 2484 796 3325 1810 524 631 903 1420 1064 2214 75 369 105 669
104 1056 0 381 -31 695 -104 1039 -16 77 -29 144 -29 151 0 6 36 40 80 74 105
83 300 286 374 390 304 426 447 929 408 1438 -81 1051 -856 1862 -1846 1933
-517 36 -1051 -153 -1424 -504 l-69 -66 -94 52 c-52 28 -159 82 -239 119
-1124 518 -2378 611 -3568 263 -247 -72 -559 -192 -764 -295 -43 -22 -81 -39
-86 -39 -4 0 -48 34 -97 77 -283 242 -635 400 -1001 448 -138 18 -363 18 -497
0z"/>
</g>
</svg>
